<svg width="231" height="233" viewBox="0 0 231 233" fill="none" xmlns="http://www.w3.org/2000/svg">
<path d="M152.763 204.258L149.695 57.7692C149.683 57.2369 149.678 56.9707 149.686 56.7069C149.717 55.7544 149.883 54.8111 150.18 53.9056C150.263 53.6548 150.359 53.4066 150.551 52.9102L158.556 32.2755C159.184 30.6561 159.498 29.8463 159.901 29.1575C161.373 26.6405 163.871 24.8916 166.74 24.3689C167.525 24.2258 168.394 24.2076 170.13 24.1712L206.304 23.4135C208.137 23.3751 209.053 23.3559 209.879 23.477C212.901 23.9202 215.554 25.7198 217.084 28.3633C217.502 29.0858 217.823 29.9443 218.465 31.6612L220.413 36.8693L220.413 36.8694C221.605 40.055 222.201 41.6478 222.331 42.9362C222.816 47.7513 219.783 52.2227 215.13 53.5532C213.885 53.9092 212.185 53.9448 208.784 54.016L174.969 54.7243C172.46 54.7769 171.206 54.8032 170.17 55.0489C166.346 55.9565 163.408 59.0202 162.662 62.8792C162.459 63.9241 162.486 65.1785 162.538 67.6875L162.692 75.0473C162.745 77.5562 162.771 78.8107 163.017 79.8462C163.924 83.6706 166.988 86.6086 170.847 87.3552C171.892 87.5573 173.147 87.5311 175.656 87.4785L187.77 87.2248C191.854 87.1392 195.235 90.3812 195.321 94.4659C195.406 98.5507 192.164 101.931 188.079 102.017L175.965 102.271C173.456 102.323 172.202 102.35 171.166 102.595C167.342 103.503 164.404 106.567 163.657 110.426C163.455 111.47 163.482 112.725 163.534 115.234L165.393 203.993C165.466 207.481 162.698 210.368 159.21 210.441C155.723 210.514 152.836 207.746 152.763 204.258Z" fill="url(#paint0_linear)"/>
<path d="M152.763 204.258L149.695 57.7692C149.683 57.2369 149.678 56.9707 149.686 56.7069C149.717 55.7544 149.883 54.8111 150.18 53.9056C150.263 53.6548 150.359 53.4066 150.551 52.9102L158.556 32.2755C159.184 30.6561 159.498 29.8463 159.901 29.1575C161.373 26.6405 163.871 24.8916 166.74 24.3689C167.525 24.2258 168.394 24.2076 170.13 24.1712L206.304 23.4135C208.137 23.3751 209.053 23.3559 209.879 23.477C212.901 23.9202 215.554 25.7198 217.084 28.3633C217.502 29.0858 217.823 29.9443 218.465 31.6612L220.413 36.8693L220.413 36.8694C221.605 40.055 222.201 41.6478 222.331 42.9362C222.816 47.7513 219.783 52.2227 215.13 53.5532C213.885 53.9092 212.185 53.9448 208.784 54.016L174.969 54.7243C172.46 54.7769 171.206 54.8032 170.17 55.0489C166.346 55.9565 163.408 59.0202 162.662 62.8792C162.459 63.9241 162.486 65.1785 162.538 67.6875L162.692 75.0473C162.745 77.5562 162.771 78.8107 163.017 79.8462C163.924 83.6706 166.988 86.6086 170.847 87.3552C171.892 87.5573 173.147 87.5311 175.656 87.4785L187.77 87.2248C191.854 87.1392 195.235 90.3812 195.321 94.4659C195.406 98.5507 192.164 101.931 188.079 102.017L175.965 102.271C173.456 102.323 172.202 102.35 171.166 102.595C167.342 103.503 164.404 106.567 163.657 110.426C163.455 111.47 163.482 112.725 163.534 115.234L165.393 203.993C165.466 207.481 162.698 210.368 159.21 210.441C155.723 210.514 152.836 207.746 152.763 204.258Z" fill="#FF3333"/>
<path d="M152.763 204.258L149.695 57.7692C149.683 57.2369 149.678 56.9707 149.686 56.7069C149.717 55.7544 149.883 54.8111 150.18 53.9056C150.263 53.6548 150.359 53.4066 150.551 52.9102L158.556 32.2755C159.184 30.6561 159.498 29.8463 159.901 29.1575C161.373 26.6405 163.871 24.8916 166.74 24.3689C167.525 24.2258 168.394 24.2076 170.13 24.1712L206.304 23.4135C208.137 23.3751 209.053 23.3559 209.879 23.477C212.901 23.9202 215.554 25.7198 217.084 28.3633C217.502 29.0858 217.823 29.9443 218.465 31.6612L220.413 36.8693L220.413 36.8694C221.605 40.055 222.201 41.6478 222.331 42.9362C222.816 47.7513 219.783 52.2227 215.13 53.5532C213.885 53.9092 212.185 53.9448 208.784 54.016L174.969 54.7243C172.46 54.7769 171.206 54.8032 170.17 55.0489C166.346 55.9565 163.408 59.0202 162.662 62.8792C162.459 63.9241 162.486 65.1785 162.538 67.6875L162.692 75.0473C162.745 77.5562 162.771 78.8107 163.017 79.8462C163.924 83.6706 166.988 86.6086 170.847 87.3552C171.892 87.5573 173.147 87.5311 175.656 87.4785L187.77 87.2248C191.854 87.1392 195.235 90.3812 195.321 94.4659C195.406 98.5507 192.164 101.931 188.079 102.017L175.965 102.271C173.456 102.323 172.202 102.35 171.166 102.595C167.342 103.503 164.404 106.567 163.657 110.426C163.455 111.47 163.482 112.725 163.534 115.234L165.393 203.993C165.466 207.481 162.698 210.368 159.21 210.441C155.723 210.514 152.836 207.746 152.763 204.258Z" fill="black" fill-opacity="0.2"/>
<path d="M219.008 37.3948L219.008 37.3949C219.017 37.4165 219.025 37.4379 219.033 37.4593C220.244 40.6995 220.734 42.0496 220.838 43.0865C221.25 47.1794 218.673 50.9801 214.718 52.111C213.709 52.3994 212.261 52.4428 208.753 52.5163L174.938 53.2247C174.864 53.2262 174.792 53.2277 174.72 53.2292C172.419 53.2772 171.017 53.3064 169.824 53.5894C165.426 54.6331 162.047 58.1564 161.189 62.5942C160.956 63.7978 160.985 65.1999 161.034 67.5007L161.038 67.7189L161.193 75.0787L161.197 75.2969C161.245 77.5977 161.274 78.9998 161.557 80.1926C162.601 84.5906 166.124 87.9693 170.562 88.8279C171.766 89.0607 173.168 89.0312 175.469 88.9828L175.687 88.9782L187.801 88.7244C191.058 88.6562 193.753 91.2408 193.821 94.4973C193.889 97.7539 191.305 100.449 188.048 100.517L175.934 100.771L175.716 100.776C173.415 100.824 172.013 100.853 170.82 101.136C166.422 102.18 163.043 105.703 162.185 110.141C161.952 111.344 161.981 112.746 162.03 115.047L162.034 115.265L163.894 204.025C163.949 206.684 161.839 208.885 159.179 208.941C156.52 208.997 154.318 206.886 154.263 204.226L151.194 57.7378C151.183 57.1904 151.179 56.9699 151.185 56.7546C151.211 55.945 151.353 55.1432 151.605 54.3735C151.672 54.1689 151.752 53.9631 151.95 53.4527L159.954 32.818C160.601 31.1502 160.868 30.4756 161.196 29.9149C162.447 27.7754 164.57 26.2889 167.009 25.8446C167.648 25.7281 168.373 25.7084 170.162 25.6709L206.336 24.9132C208.223 24.8736 208.989 24.8626 209.661 24.9612C212.23 25.3378 214.485 26.8676 215.785 29.1145C216.126 29.7024 216.399 30.4183 217.06 32.1867L218.465 31.6612L217.06 32.1867L219.008 37.3948Z" stroke="black" stroke-opacity="0.5" stroke-width="3"/>
<path d="M8.8578 212.361L61.2898 31.6981L61.2898 31.698C62.749 26.6701 63.4786 24.1562 64.3691 22.8455C67.7593 17.8555 74.7627 16.9808 79.276 20.9837C80.4615 22.0351 81.787 24.2924 84.438 28.807L136.244 117.032C136.598 117.634 136.775 117.936 136.929 118.244C137.483 119.358 137.825 120.566 137.937 121.806C137.968 122.149 137.975 122.498 137.99 123.197L139.212 181.546C139.381 189.596 139.465 193.621 138.878 195.315C136.605 201.867 128.515 204.173 123.129 199.804C121.737 198.674 119.687 195.209 115.586 188.28L108.085 175.606C106.147 172.332 105.178 170.695 104.183 169.743C100.447 166.172 94.6035 166.036 90.7056 169.432C89.6676 170.336 88.624 171.926 86.5369 175.108L53.6053 225.303L53.6051 225.303C52.7271 226.641 52.2881 227.31 51.7922 227.865C49.9831 229.89 47.4285 231.092 44.7154 231.195C43.9716 231.223 43.1761 231.135 41.5851 230.958L19.653 228.523L19.6528 228.523C16.7436 228.2 15.289 228.039 14.1772 227.638C10.0476 226.15 7.37112 222.143 7.57823 217.758C7.63399 216.578 8.04192 215.172 8.8578 212.361Z" fill="url(#paint1_linear)"/>
<path d="M8.8578 212.361L61.2898 31.6981L61.2898 31.698C62.749 26.6701 63.4786 24.1562 64.3691 22.8455C67.7593 17.8555 74.7627 16.9808 79.276 20.9837C80.4615 22.0351 81.787 24.2924 84.438 28.807L136.244 117.032C136.598 117.634 136.775 117.936 136.929 118.244C137.483 119.358 137.825 120.566 137.937 121.806C137.968 122.149 137.975 122.498 137.99 123.197L139.212 181.546C139.381 189.596 139.465 193.621 138.878 195.315C136.605 201.867 128.515 204.173 123.129 199.804C121.737 198.674 119.687 195.209 115.586 188.28L108.085 175.606C106.147 172.332 105.178 170.695 104.183 169.743C100.447 166.172 94.6035 166.036 90.7056 169.432C89.6676 170.336 88.624 171.926 86.5369 175.108L53.6053 225.303L53.6051 225.303C52.7271 226.641 52.2881 227.31 51.7922 227.865C49.9831 229.89 47.4285 231.092 44.7154 231.195C43.9716 231.223 43.1761 231.135 41.5851 230.958L19.653 228.523L19.6528 228.523C16.7436 228.2 15.289 228.039 14.1772 227.638C10.0476 226.15 7.37112 222.143 7.57823 217.758C7.63399 216.578 8.04192 215.172 8.8578 212.361Z" fill="#FF3333"/>
<path d="M8.8578 212.361L61.2898 31.6981L61.2898 31.698C62.749 26.6701 63.4786 24.1562 64.3691 22.8455C67.7593 17.8555 74.7627 16.9808 79.276 20.9837C80.4615 22.0351 81.787 24.2924 84.438 28.807L136.244 117.032C136.598 117.634 136.775 117.936 136.929 118.244C137.483 119.358 137.825 120.566 137.937 121.806C137.968 122.149 137.975 122.498 137.99 123.197L139.212 181.546C139.381 189.596 139.465 193.621 138.878 195.315C136.605 201.867 128.515 204.173 123.129 199.804C121.737 198.674 119.687 195.209 115.586 188.28L108.085 175.606C106.147 172.332 105.178 170.695 104.183 169.743C100.447 166.172 94.6035 166.036 90.7056 169.432C89.6676 170.336 88.624 171.926 86.5369 175.108L53.6053 225.303L53.6051 225.303C52.7271 226.641 52.2881 227.31 51.7922 227.865C49.9831 229.89 47.4285 231.092 44.7154 231.195C43.9716 231.223 43.1761 231.135 41.5851 230.958L19.653 228.523L19.6528 228.523C16.7436 228.2 15.289 228.039 14.1772 227.638C10.0476 226.15 7.37112 222.143 7.57823 217.758C7.63399 216.578 8.04192 215.172 8.8578 212.361Z" fill="black" fill-opacity="0.2"/>
<path d="M52.3515 224.479L52.3511 224.48L52.3509 224.48C51.4469 225.858 51.0774 226.414 50.6736 226.866C49.1359 228.587 46.9646 229.608 44.6584 229.696C44.0528 229.719 43.3887 229.649 41.7506 229.468L19.8624 227.037L19.8622 227.037L19.8185 227.032L19.8183 227.032C16.8176 226.699 15.5876 226.552 14.6857 226.227C11.1755 224.962 8.90052 221.556 9.07656 217.829C9.12179 216.871 9.45683 215.679 10.2984 212.779L62.7142 32.1717L62.7142 32.1716L62.7303 32.1161L62.7304 32.1161C63.4636 29.5894 64.0009 27.7391 64.465 26.3544C64.9359 24.9491 65.2883 24.1617 65.6098 23.6884C68.4915 19.4469 74.4444 18.7035 78.2807 22.1059C78.7088 22.4856 79.244 23.1621 80.0461 24.4084C80.8364 25.6365 81.8123 27.2978 83.1445 29.5666L134.951 117.791L136.244 117.032L134.951 117.791C135.315 118.411 135.461 118.661 135.586 118.913L136.929 118.244L135.586 118.913C136.058 119.86 136.348 120.887 136.443 121.94C136.468 122.22 136.475 122.51 136.49 123.228L137.712 181.577C137.797 185.614 137.859 188.601 137.829 190.793C137.797 193.05 137.663 194.24 137.46 194.823C135.529 200.393 128.652 202.353 124.074 198.639C123.595 198.25 122.854 197.309 121.637 195.408C120.455 193.562 118.933 190.991 116.876 187.516L109.376 174.842L109.358 174.811C108.404 173.2 107.665 171.95 107.039 170.987C106.411 170.019 105.844 169.256 105.22 168.659C100.923 164.552 94.203 164.396 89.7204 168.301C89.0688 168.868 88.4679 169.604 87.7958 170.541C87.1259 171.475 86.3291 172.69 85.3019 174.256L85.2828 174.285L52.3517 224.479L52.3515 224.479Z" stroke="black" stroke-opacity="0.5" stroke-width="3"/>
<defs>
<linearGradient id="paint0_linear" x1="187.523" y1="23.8069" x2="191.418" y2="209.766" gradientUnits="userSpaceOnUse">
<stop stop-color="#840007"/>
<stop offset="1" stop-color="#AB1D25" stop-opacity="0"/>
</linearGradient>
<linearGradient id="paint1_linear" x1="67.7256" y1="3.41865" x2="72.4997" y2="231.333" gradientUnits="userSpaceOnUse">
<stop stop-color="#840007"/>
<stop offset="1" stop-color="#AB1D25" stop-opacity="0"/>
</linearGradient>
</defs>
</svg>
