<svg width="503" height="268" viewBox="0 0 503 268" fill="none" xmlns="http://www.w3.org/2000/svg">
<g filter="url(#filter0_di)">
<path d="M79.7779 186.791L86.6538 76.3004C86.8248 73.5519 89.0742 71.3933 91.8275 71.3356C94.9648 71.2699 97.4706 73.9318 97.2156 77.0594L90.0645 164.789C90.049 164.98 90.0412 165.076 90.036 165.155C89.656 170.943 94.2652 175.84 100.066 175.81C100.145 175.809 100.241 175.807 100.433 175.803C100.608 175.8 100.695 175.798 100.769 175.797C106.177 175.764 110.631 180.036 110.824 185.44C110.827 185.514 110.829 185.601 110.832 185.776L110.874 187.741C110.916 189.741 110.936 190.741 110.811 191.58C110.185 195.777 106.977 199.121 102.81 199.923C101.978 200.083 100.978 200.104 98.9774 200.146L92.7194 200.277C90.0165 200.334 88.665 200.362 87.5669 200.137C83.5002 199.302 80.3719 196.043 79.7059 191.945C79.5261 190.838 79.61 189.489 79.7779 186.791Z" fill="url(#paint0_linear)"/>
<path d="M79.7779 186.791L86.6538 76.3004C86.8248 73.5519 89.0742 71.3933 91.8275 71.3356C94.9648 71.2699 97.4706 73.9318 97.2156 77.0594L90.0645 164.789C90.049 164.98 90.0412 165.076 90.036 165.155C89.656 170.943 94.2652 175.84 100.066 175.81C100.145 175.809 100.241 175.807 100.433 175.803C100.608 175.8 100.695 175.798 100.769 175.797C106.177 175.764 110.631 180.036 110.824 185.44C110.827 185.514 110.829 185.601 110.832 185.776L110.874 187.741C110.916 189.741 110.936 190.741 110.811 191.58C110.185 195.777 106.977 199.121 102.81 199.923C101.978 200.083 100.978 200.104 98.9774 200.146L92.7194 200.277C90.0165 200.334 88.665 200.362 87.5669 200.137C83.5002 199.302 80.3719 196.043 79.7059 191.945C79.5261 190.838 79.61 189.489 79.7779 186.791Z" fill="#FF3333"/>
<path d="M79.7779 186.791L86.6538 76.3004C86.8248 73.5519 89.0742 71.3933 91.8275 71.3356C94.9648 71.2699 97.4706 73.9318 97.2156 77.0594L90.0645 164.789C90.049 164.98 90.0412 165.076 90.036 165.155C89.656 170.943 94.2652 175.84 100.066 175.81C100.145 175.809 100.241 175.807 100.433 175.803C100.608 175.8 100.695 175.798 100.769 175.797C106.177 175.764 110.631 180.036 110.824 185.44C110.827 185.514 110.829 185.601 110.832 185.776L110.874 187.741C110.916 189.741 110.936 190.741 110.811 191.58C110.185 195.777 106.977 199.121 102.81 199.923C101.978 200.083 100.978 200.104 98.9774 200.146L92.7194 200.277C90.0165 200.334 88.665 200.362 87.5669 200.137C83.5002 199.302 80.3719 196.043 79.7059 191.945C79.5261 190.838 79.61 189.489 79.7779 186.791Z" fill="black" fill-opacity="0.2"/>
<path d="M81.2751 186.884L88.1509 76.3936C88.2735 74.4237 89.8856 72.8767 91.8589 72.8353C94.1074 72.7882 95.9033 74.696 95.7206 76.9376L88.5695 164.667L88.5682 164.684C88.5539 164.859 88.5452 164.966 88.5392 165.057C88.1022 171.713 93.4028 177.344 100.074 177.31C100.168 177.309 100.278 177.307 100.464 177.303C100.645 177.299 100.718 177.298 100.779 177.297C105.375 177.269 109.161 180.9 109.325 185.493C109.327 185.553 109.329 185.627 109.333 185.808L109.374 187.772C109.417 189.834 109.429 190.677 109.328 191.358C108.795 194.926 106.069 197.769 102.527 198.45C101.851 198.58 101.008 198.603 98.946 198.646L92.688 198.777C89.9007 198.836 88.7597 198.85 87.8683 198.667C84.4117 197.958 81.7526 195.187 81.1865 191.704C81.0405 190.806 81.1019 189.667 81.2751 186.884Z" stroke="black" stroke-opacity="0.5" stroke-width="3"/>
<path d="M128.645 191.627L126.409 84.851C126.317 80.4913 129.778 76.883 134.137 76.7917C138.497 76.7004 142.105 80.1606 142.197 84.5203L144.433 191.296C144.525 195.656 141.064 199.264 136.705 199.356C132.345 199.447 128.737 195.987 128.645 191.627Z" fill="url(#paint1_linear)"/>
<path d="M128.645 191.627L126.409 84.851C126.317 80.4913 129.778 76.883 134.137 76.7917C138.497 76.7004 142.105 80.1606 142.197 84.5203L144.433 191.296C144.525 195.656 141.064 199.264 136.705 199.356C132.345 199.447 128.737 195.987 128.645 191.627Z" fill="#FF3333"/>
<path d="M128.645 191.627L126.409 84.851C126.317 80.4913 129.778 76.883 134.137 76.7917C138.497 76.7004 142.105 80.1606 142.197 84.5203L144.433 191.296C144.525 195.656 141.064 199.264 136.705 199.356C132.345 199.447 128.737 195.987 128.645 191.627Z" fill="black" fill-opacity="0.2"/>
<path d="M130.145 191.596L127.908 84.8196C127.834 81.2881 130.637 78.3653 134.169 78.2913C137.7 78.2174 140.623 81.0202 140.697 84.5517L142.934 191.328C143.008 194.859 140.205 197.782 136.673 197.856C133.142 197.93 130.219 195.127 130.145 191.596Z" stroke="black" stroke-opacity="0.5" stroke-width="3"/>
<path d="M171.753 198.563L169.114 72.5702C169.075 70.7225 169.658 68.9154 170.77 67.4392L171.846 66.0101C176.114 60.3437 185.13 63.1039 185.494 70.188C185.927 78.6153 197.725 80.1544 200.305 72.1202L205.459 56.0734C205.6 55.6334 205.671 55.4134 205.743 55.2164C207.112 51.4991 210.545 48.94 214.499 48.6909C214.708 48.6777 214.939 48.6729 215.401 48.6632L216.726 48.6355C219.082 48.5861 220.26 48.5614 221.243 48.7385C225.204 49.4519 228.351 52.4698 229.23 56.397C229.448 57.3719 229.472 58.5499 229.522 60.9058L232.317 194.354C232.345 195.703 232.359 196.378 232.306 196.946C231.874 201.577 228.305 205.299 223.696 205.925C223.13 206.002 222.456 206.016 221.107 206.044L220.235 206.062C219.859 206.07 219.671 206.074 219.507 206.072C214.745 206.016 210.684 202.609 209.8 197.929C209.769 197.768 209.74 197.582 209.683 197.21L209.683 197.21C209.329 194.927 209.152 193.786 209.081 193.468C206.736 182.931 191.666 183.072 189.52 193.652C189.455 193.971 189.299 195.116 188.988 197.404L188.988 197.405L188.699 199.531C188.135 203.684 184.632 206.808 180.442 206.896C175.742 206.994 171.851 203.264 171.753 198.563Z" fill="url(#paint2_linear)"/>
<path d="M171.753 198.563L169.114 72.5702C169.075 70.7225 169.658 68.9154 170.77 67.4392L171.846 66.0101C176.114 60.3437 185.13 63.1039 185.494 70.188C185.927 78.6153 197.725 80.1544 200.305 72.1202L205.459 56.0734C205.6 55.6334 205.671 55.4134 205.743 55.2164C207.112 51.4991 210.545 48.94 214.499 48.6909C214.708 48.6777 214.939 48.6729 215.401 48.6632L216.726 48.6355C219.082 48.5861 220.26 48.5614 221.243 48.7385C225.204 49.4519 228.351 52.4698 229.23 56.397C229.448 57.3719 229.472 58.5499 229.522 60.9058L232.317 194.354C232.345 195.703 232.359 196.378 232.306 196.946C231.874 201.577 228.305 205.299 223.696 205.925C223.13 206.002 222.456 206.016 221.107 206.044L220.235 206.062C219.859 206.07 219.671 206.074 219.507 206.072C214.745 206.016 210.684 202.609 209.8 197.929C209.769 197.768 209.74 197.582 209.683 197.21L209.683 197.21C209.329 194.927 209.152 193.786 209.081 193.468C206.736 182.931 191.666 183.072 189.52 193.652C189.455 193.971 189.299 195.116 188.988 197.404L188.988 197.405L188.699 199.531C188.135 203.684 184.632 206.808 180.442 206.896C175.742 206.994 171.851 203.264 171.753 198.563Z" fill="#FF3333"/>
<path d="M171.753 198.563L169.114 72.5702C169.075 70.7225 169.658 68.9154 170.77 67.4392L171.846 66.0101C176.114 60.3437 185.13 63.1039 185.494 70.188C185.927 78.6153 197.725 80.1544 200.305 72.1202L205.459 56.0734C205.6 55.6334 205.671 55.4134 205.743 55.2164C207.112 51.4991 210.545 48.94 214.499 48.6909C214.708 48.6777 214.939 48.6729 215.401 48.6632L216.726 48.6355C219.082 48.5861 220.26 48.5614 221.243 48.7385C225.204 49.4519 228.351 52.4698 229.23 56.397C229.448 57.3719 229.472 58.5499 229.522 60.9058L232.317 194.354C232.345 195.703 232.359 196.378 232.306 196.946C231.874 201.577 228.305 205.299 223.696 205.925C223.13 206.002 222.456 206.016 221.107 206.044L220.235 206.062C219.859 206.07 219.671 206.074 219.507 206.072C214.745 206.016 210.684 202.609 209.8 197.929C209.769 197.768 209.74 197.582 209.683 197.21L209.683 197.21C209.329 194.927 209.152 193.786 209.081 193.468C206.736 182.931 191.666 183.072 189.52 193.652C189.455 193.971 189.299 195.116 188.988 197.404L188.988 197.405L188.699 199.531C188.135 203.684 184.632 206.808 180.442 206.896C175.742 206.994 171.851 203.264 171.753 198.563Z" fill="black" fill-opacity="0.2"/>
<path d="M211.165 196.981L211.165 196.98L211.126 196.731C210.804 194.654 210.627 193.509 210.545 193.142C207.848 181.024 190.518 181.187 188.05 193.354C187.975 193.722 187.819 194.87 187.536 196.951L187.502 197.202L187.502 197.203L187.5 197.213L187.499 197.223L187.499 197.224L187.213 199.329C186.748 202.75 183.862 205.324 180.411 205.396C176.538 205.477 173.334 202.404 173.253 198.532L170.613 72.5387C170.582 71.0273 171.059 69.5491 171.968 68.3415L173.045 66.9124C176.469 62.3656 183.704 64.5804 183.996 70.265C184.514 80.3572 198.643 82.2004 201.733 72.5789L206.887 56.5321C207.033 56.0789 207.092 55.8949 207.151 55.7346C208.314 52.5749 211.233 50.3997 214.593 50.188C214.764 50.1772 214.957 50.1728 215.433 50.1629L216.758 50.1351C219.187 50.0842 220.179 50.0709 220.978 50.2148C224.344 50.8211 227.019 53.3863 227.766 56.7244C227.943 57.5163 227.971 58.5084 228.022 60.9372L230.817 194.385C230.846 195.776 230.856 196.345 230.813 196.807C230.445 200.743 227.412 203.906 223.494 204.439C223.034 204.501 222.466 204.515 221.075 204.544L220.204 204.563C219.816 204.571 219.658 204.574 219.525 204.572C215.477 204.524 212.025 201.628 211.274 197.651C211.249 197.521 211.225 197.367 211.167 196.993C211.166 196.989 211.166 196.985 211.165 196.981Z" stroke="black" stroke-opacity="0.5" stroke-width="3"/>
<path d="M259.214 211.613L256.145 65.1239C256.134 64.5915 256.129 64.3254 256.137 64.0616C256.167 63.109 256.334 62.1657 256.631 61.2603C256.713 61.0095 256.81 60.7613 257.002 60.2649L265.007 39.6302C265.635 38.0107 265.949 37.201 266.352 36.5122C267.824 33.9951 270.322 32.2462 273.191 31.7235C273.976 31.5805 274.844 31.5623 276.581 31.5259L312.755 30.7682C314.588 30.7298 315.504 30.7106 316.33 30.8317C319.352 31.2749 322.005 33.0745 323.535 35.718C323.953 36.4405 324.274 37.299 324.916 39.0159L326.864 44.2239L326.864 44.224C328.056 47.4096 328.652 49.0025 328.781 50.2909C329.266 55.106 326.234 59.5774 321.581 60.9078C320.336 61.2638 318.636 61.2995 315.235 61.3707L281.42 62.079C278.911 62.1316 277.657 62.1578 276.621 62.4036C272.797 63.3111 269.859 66.3749 269.112 70.2338C268.91 71.2787 268.936 72.5332 268.989 75.0422L269.143 82.4019C269.196 84.9109 269.222 86.1654 269.468 87.2009C270.375 91.0252 273.439 93.9632 277.298 94.7099C278.343 94.912 279.597 94.8857 282.106 94.8332L294.22 94.5794C298.305 94.4939 301.686 97.7358 301.771 101.821C301.857 105.905 298.615 109.286 294.53 109.372L282.416 109.625C279.907 109.678 278.653 109.704 277.617 109.95C273.793 110.858 270.855 113.921 270.108 117.78C269.906 118.825 269.932 120.08 269.985 122.589L271.844 211.348C271.917 214.836 269.149 217.722 265.661 217.795C262.173 217.869 259.287 215.1 259.214 211.613Z" fill="url(#paint3_linear)"/>
<path d="M259.214 211.613L256.145 65.1239C256.134 64.5915 256.129 64.3254 256.137 64.0616C256.167 63.109 256.334 62.1657 256.631 61.2603C256.713 61.0095 256.81 60.7613 257.002 60.2649L265.007 39.6302C265.635 38.0107 265.949 37.201 266.352 36.5122C267.824 33.9951 270.322 32.2462 273.191 31.7235C273.976 31.5805 274.844 31.5623 276.581 31.5259L312.755 30.7682C314.588 30.7298 315.504 30.7106 316.33 30.8317C319.352 31.2749 322.005 33.0745 323.535 35.718C323.953 36.4405 324.274 37.299 324.916 39.0159L326.864 44.2239L326.864 44.224C328.056 47.4096 328.652 49.0025 328.781 50.2909C329.266 55.106 326.234 59.5774 321.581 60.9078C320.336 61.2638 318.636 61.2995 315.235 61.3707L281.42 62.079C278.911 62.1316 277.657 62.1578 276.621 62.4036C272.797 63.3111 269.859 66.3749 269.112 70.2338C268.91 71.2787 268.936 72.5332 268.989 75.0422L269.143 82.4019C269.196 84.9109 269.222 86.1654 269.468 87.2009C270.375 91.0252 273.439 93.9632 277.298 94.7099C278.343 94.912 279.597 94.8857 282.106 94.8332L294.22 94.5794C298.305 94.4939 301.686 97.7358 301.771 101.821C301.857 105.905 298.615 109.286 294.53 109.372L282.416 109.625C279.907 109.678 278.653 109.704 277.617 109.95C273.793 110.858 270.855 113.921 270.108 117.78C269.906 118.825 269.932 120.08 269.985 122.589L271.844 211.348C271.917 214.836 269.149 217.722 265.661 217.795C262.173 217.869 259.287 215.1 259.214 211.613Z" fill="#FF3333"/>
<path d="M259.214 211.613L256.145 65.1239C256.134 64.5915 256.129 64.3254 256.137 64.0616C256.167 63.109 256.334 62.1657 256.631 61.2603C256.713 61.0095 256.81 60.7613 257.002 60.2649L265.007 39.6302C265.635 38.0107 265.949 37.201 266.352 36.5122C267.824 33.9951 270.322 32.2462 273.191 31.7235C273.976 31.5805 274.844 31.5623 276.581 31.5259L312.755 30.7682C314.588 30.7298 315.504 30.7106 316.33 30.8317C319.352 31.2749 322.005 33.0745 323.535 35.718C323.953 36.4405 324.274 37.299 324.916 39.0159L326.864 44.2239L326.864 44.224C328.056 47.4096 328.652 49.0025 328.781 50.2909C329.266 55.106 326.234 59.5774 321.581 60.9078C320.336 61.2638 318.636 61.2995 315.235 61.3707L281.42 62.079C278.911 62.1316 277.657 62.1578 276.621 62.4036C272.797 63.3111 269.859 66.3749 269.112 70.2338C268.91 71.2787 268.936 72.5332 268.989 75.0422L269.143 82.4019C269.196 84.9109 269.222 86.1654 269.468 87.2009C270.375 91.0252 273.439 93.9632 277.298 94.7099C278.343 94.912 279.597 94.8857 282.106 94.8332L294.22 94.5794C298.305 94.4939 301.686 97.7358 301.771 101.821C301.857 105.905 298.615 109.286 294.53 109.372L282.416 109.625C279.907 109.678 278.653 109.704 277.617 109.95C273.793 110.858 270.855 113.921 270.108 117.78C269.906 118.825 269.932 120.08 269.985 122.589L271.844 211.348C271.917 214.836 269.149 217.722 265.661 217.795C262.173 217.869 259.287 215.1 259.214 211.613Z" fill="black" fill-opacity="0.2"/>
<path d="M325.459 44.7495L325.459 44.7496C325.467 44.7711 325.475 44.7926 325.483 44.814C326.695 48.0542 327.184 49.4042 327.289 50.4412C327.701 54.534 325.124 58.3348 321.169 59.4656C320.16 59.7541 318.712 59.7975 315.204 59.871L281.389 60.5793C281.315 60.5809 281.242 60.5824 281.171 60.5839C278.87 60.6318 277.468 60.6611 276.275 60.9441C271.877 61.9878 268.498 65.5111 267.64 69.9489C267.407 71.1525 267.436 72.5546 267.485 74.8554L267.489 75.0736L267.643 82.4333L267.648 82.6516C267.696 84.9524 267.725 86.3545 268.008 87.5473C269.052 91.9452 272.575 95.3239 277.013 96.1825C278.217 96.4154 279.619 96.3859 281.92 96.3374L282.138 96.3329L294.252 96.0791C297.508 96.0109 300.204 98.5955 300.272 101.852C300.34 105.109 297.755 107.804 294.499 107.872L282.385 108.126L282.167 108.13C279.866 108.178 278.464 108.207 277.271 108.49C272.873 109.534 269.494 113.057 268.636 117.495C268.403 118.699 268.432 120.101 268.481 122.402L268.485 122.62L270.345 211.379C270.4 214.039 268.289 216.24 265.63 216.296C262.97 216.351 260.769 214.241 260.713 211.581L257.645 65.0924C257.634 64.5451 257.629 64.3245 257.636 64.1093C257.662 63.2997 257.803 62.4979 258.056 61.7282C258.123 61.5236 258.203 61.3178 258.401 60.8074L266.405 40.1726C267.052 38.5049 267.319 37.8303 267.647 37.2696C268.898 35.1301 271.021 33.6435 273.46 33.1992C274.099 33.0828 274.824 33.0631 276.612 33.0256L312.786 32.2679C314.674 32.2283 315.44 32.2173 316.112 32.3158C318.681 32.6925 320.936 34.2222 322.236 36.4692C322.576 37.0571 322.85 37.773 323.511 39.5414L324.916 39.0159L323.511 39.5414L325.459 44.7495Z" stroke="black" stroke-opacity="0.5" stroke-width="3"/>
<path d="M339.78 211.101L345.688 79.5508C345.87 75.5015 349.162 72.2876 353.215 72.2027C357.796 72.1067 361.446 76.0114 361.041 80.5761L349.404 211.743C349.186 214.194 347.16 216.088 344.7 216.14C341.912 216.198 339.655 213.887 339.78 211.101Z" fill="url(#paint4_linear)"/>
<path d="M339.78 211.101L345.688 79.5508C345.87 75.5015 349.162 72.2876 353.215 72.2027C357.796 72.1067 361.446 76.0114 361.041 80.5761L349.404 211.743C349.186 214.194 347.16 216.088 344.7 216.14C341.912 216.198 339.655 213.887 339.78 211.101Z" fill="#FF3333"/>
<path d="M339.78 211.101L345.688 79.5508C345.87 75.5015 349.162 72.2876 353.215 72.2027C357.796 72.1067 361.446 76.0114 361.041 80.5761L349.404 211.743C349.186 214.194 347.16 216.088 344.7 216.14C341.912 216.198 339.655 213.887 339.78 211.101Z" fill="black" fill-opacity="0.2"/>
<path d="M341.279 211.168L347.187 79.6181C347.333 76.3581 349.984 73.7707 353.246 73.7023C356.935 73.6251 359.873 76.7687 359.547 80.4436L347.91 211.611C347.76 213.299 346.363 214.605 344.669 214.64C342.747 214.68 341.192 213.088 341.279 211.168Z" stroke="black" stroke-opacity="0.5" stroke-width="3"/>
<path d="M423.974 187.437L396.666 109.357C393.144 99.2871 378.222 101.982 378.445 112.648C378.464 113.515 378.602 114.376 378.857 115.206L403.162 194.273C403.364 194.929 403.465 195.257 403.574 195.546C404.988 199.304 408.513 201.852 412.525 202.015C412.833 202.028 413.176 202.021 413.863 202.006C415.04 201.982 415.629 201.969 416.077 201.92C422.099 201.248 426.145 195.418 424.667 189.542C424.557 189.105 424.363 188.549 423.974 187.438L423.974 187.437Z" fill="url(#paint5_linear)"/>
<path d="M423.974 187.437L396.666 109.357C393.144 99.2871 378.222 101.982 378.445 112.648C378.464 113.515 378.602 114.376 378.857 115.206L403.162 194.273C403.364 194.929 403.465 195.257 403.574 195.546C404.988 199.304 408.513 201.852 412.525 202.015C412.833 202.028 413.176 202.021 413.863 202.006C415.04 201.982 415.629 201.969 416.077 201.92C422.099 201.248 426.145 195.418 424.667 189.542C424.557 189.105 424.363 188.549 423.974 187.438L423.974 187.437Z" fill="#FF3333"/>
<path d="M423.974 187.437L396.666 109.357C393.144 99.2871 378.222 101.982 378.445 112.648C378.464 113.515 378.602 114.376 378.857 115.206L403.162 194.273C403.364 194.929 403.465 195.257 403.574 195.546C404.988 199.304 408.513 201.852 412.525 202.015C412.833 202.028 413.176 202.021 413.863 202.006C415.04 201.982 415.629 201.969 416.077 201.92C422.099 201.248 426.145 195.418 424.667 189.542C424.557 189.105 424.363 188.549 423.974 187.438L423.974 187.437Z" fill="black" fill-opacity="0.2"/>
<path d="M422.558 187.933L422.558 187.933C422.559 187.934 422.559 187.936 422.56 187.937C422.96 189.081 423.124 189.554 423.213 189.908C424.469 194.903 421.03 199.858 415.911 200.429C415.548 200.469 415.046 200.481 413.831 200.507C413.124 200.522 412.837 200.527 412.586 200.517C409.176 200.377 406.18 198.212 404.977 195.018C404.889 194.783 404.804 194.508 404.596 193.832L380.291 114.765C380.077 114.068 379.96 113.345 379.945 112.616C379.757 103.658 392.292 101.394 395.25 109.852L422.558 187.933Z" stroke="black" stroke-opacity="0.5" stroke-width="3"/>
<path d="M419.711 65.474L370.984 190.586C369.669 193.963 372.207 197.594 375.831 197.518C377.749 197.478 379.481 196.362 380.311 194.632L438.384 73.5751C438.498 73.3383 438.554 73.2198 438.594 73.1343C441.623 66.5032 436.766 58.9639 429.476 58.9794C429.382 58.9796 429.251 58.9824 428.988 58.9879C428.87 58.9904 428.811 58.9916 428.756 58.9933C424.791 59.1195 421.276 61.5775 419.796 65.2581C419.776 65.3085 419.754 65.3637 419.711 65.474Z" fill="url(#paint6_linear)"/>
<path d="M419.711 65.474L370.984 190.586C369.669 193.963 372.207 197.594 375.831 197.518C377.749 197.478 379.481 196.362 380.311 194.632L438.384 73.5751C438.498 73.3383 438.554 73.2198 438.594 73.1343C441.623 66.5032 436.766 58.9639 429.476 58.9794C429.382 58.9796 429.251 58.9824 428.988 58.9879C428.87 58.9904 428.811 58.9916 428.756 58.9933C424.791 59.1195 421.276 61.5775 419.796 65.2581C419.776 65.3085 419.754 65.3637 419.711 65.474Z" fill="#FF3333"/>
<path d="M419.711 65.474L370.984 190.586C369.669 193.963 372.207 197.594 375.831 197.518C377.749 197.478 379.481 196.362 380.311 194.632L438.384 73.5751C438.498 73.3383 438.554 73.2198 438.594 73.1343C441.623 66.5032 436.766 58.9639 429.476 58.9794C429.382 58.9796 429.251 58.9824 428.988 58.9879C428.87 58.9904 428.811 58.9916 428.756 58.9933C424.791 59.1195 421.276 61.5775 419.796 65.2581C419.776 65.3085 419.754 65.3637 419.711 65.474Z" fill="black" fill-opacity="0.2"/>
<path d="M437.032 72.9263L438.384 73.5751L437.032 72.9263L378.959 193.983C378.374 195.203 377.152 195.99 375.8 196.018C373.244 196.072 371.455 193.512 372.382 191.13L421.109 66.0184C421.153 65.9048 421.171 65.8586 421.188 65.8176C422.446 62.6891 425.434 60.5998 428.804 60.4926C428.848 60.4912 428.898 60.4901 429.02 60.4876C429.291 60.4819 429.403 60.4796 429.479 60.4794C435.676 60.4662 439.804 66.8746 437.229 72.5111C437.198 72.5803 437.149 72.682 437.032 72.9263Z" stroke="black" stroke-opacity="0.5" stroke-width="3"/>
<path d="M22.9072 184.476L35.3367 117.122C36.6933 109.771 37.3717 106.095 38.2651 104.575C41.7126 98.7109 49.8825 97.9259 54.3836 103.026C55.55 104.348 56.9158 107.827 59.6475 114.786L59.6475 114.786L67.4259 134.601C67.4459 134.652 67.456 134.677 67.4658 134.703C67.8779 135.769 68.1039 136.899 68.1341 138.042C68.1348 138.069 68.1354 138.097 68.1365 138.152L68.7295 166.46C68.8513 172.277 60.8001 173.899 58.6598 168.489C56.9452 164.154 50.8404 164.071 49.0088 168.358L39.926 189.613C38.2894 193.443 34.2255 195.636 30.1257 194.902C25.2455 194.028 22.0075 189.351 22.9072 184.476Z" fill="url(#paint7_linear)"/>
<path d="M22.9072 184.476L35.3367 117.122C36.6933 109.771 37.3717 106.095 38.2651 104.575C41.7126 98.7109 49.8825 97.9259 54.3836 103.026C55.55 104.348 56.9158 107.827 59.6475 114.786L59.6475 114.786L67.4259 134.601C67.4459 134.652 67.456 134.677 67.4658 134.703C67.8779 135.769 68.1039 136.899 68.1341 138.042C68.1348 138.069 68.1354 138.097 68.1365 138.152L68.7295 166.46C68.8513 172.277 60.8001 173.899 58.6598 168.489C56.9452 164.154 50.8404 164.071 49.0088 168.358L39.926 189.613C38.2894 193.443 34.2255 195.636 30.1257 194.902C25.2455 194.028 22.0075 189.351 22.9072 184.476Z" fill="#FF3333"/>
<path d="M22.9072 184.476L35.3367 117.122C36.6933 109.771 37.3717 106.095 38.2651 104.575C41.7126 98.7109 49.8825 97.9259 54.3836 103.026C55.55 104.348 56.9158 107.827 59.6475 114.786L59.6475 114.786L67.4259 134.601C67.4459 134.652 67.456 134.677 67.4658 134.703C67.8779 135.769 68.1039 136.899 68.1341 138.042C68.1348 138.069 68.1354 138.097 68.1365 138.152L68.7295 166.46C68.8513 172.277 60.8001 173.899 58.6598 168.489C56.9452 164.154 50.8404 164.071 49.0088 168.358L39.926 189.613C38.2894 193.443 34.2255 195.636 30.1257 194.902C25.2455 194.028 22.0075 189.351 22.9072 184.476Z" fill="black" fill-opacity="0.2"/>
<path d="M58.2513 115.334L58.2512 115.334C58.2484 115.327 58.2455 115.32 58.2426 115.312M58.2513 115.334L58.2426 115.312M58.2513 115.334L66.0296 135.149L67.4259 134.601L66.0296 135.149L66.0665 135.243L67.4658 134.703L66.0665 135.243C66.4168 136.15 66.6089 137.11 66.6346 138.082L66.6368 138.183L67.2298 166.491C67.3166 170.636 61.5797 171.792 60.0547 167.937C57.8472 162.356 49.9876 162.25 47.6295 167.768L38.5467 189.023C37.1846 192.211 33.8023 194.036 30.3901 193.425C26.3284 192.698 23.6335 188.806 24.3823 184.748L36.8118 117.394C37.4923 113.706 37.9954 110.982 38.4388 108.987C38.8946 106.937 39.2479 105.863 39.5582 105.335C42.4886 100.351 49.433 99.6834 53.2589 104.019C53.664 104.478 54.2153 105.465 55.0531 107.391C55.8666 109.261 56.8767 111.833 58.2426 115.312M58.2513 115.334L58.2426 115.312" stroke="black" stroke-opacity="0.5" stroke-width="3"/>
</g>
<defs>
<filter id="filter0_di" x="0.955322" y="0.440521" width="501.22" height="267.487" filterUnits="userSpaceOnUse" color-interpolation-filters="sRGB">
<feFlood flood-opacity="0" result="BackgroundImageFix"/>
<feColorMatrix in="SourceAlpha" type="matrix" values="0 0 0 0 0 0 0 0 0 0 0 0 0 0 0 0 0 0 127 0" result="hardAlpha"/>
<feOffset dx="20" dy="10"/>
<feGaussianBlur stdDeviation="20"/>
<feComposite in2="hardAlpha" operator="out"/>
<feColorMatrix type="matrix" values="0 0 0 0 0 0 0 0 0 0 0 0 0 0 0 0 0 0 0.5 0"/>
<feBlend mode="normal" in2="BackgroundImageFix" result="effect1_dropShadow"/>
<feBlend mode="normal" in="SourceGraphic" in2="effect1_dropShadow" result="shape"/>
<feColorMatrix in="SourceAlpha" type="matrix" values="0 0 0 0 0 0 0 0 0 0 0 0 0 0 0 0 0 0 127 0" result="hardAlpha"/>
<feOffset dy="4"/>
<feGaussianBlur stdDeviation="3.5"/>
<feComposite in2="hardAlpha" operator="arithmetic" k2="-1" k3="1"/>
<feColorMatrix type="matrix" values="0 0 0 0 0 0 0 0 0 0 0 0 0 0 0 0 0 0 0.25 0"/>
<feBlend mode="normal" in2="shape" result="effect2_innerShadow"/>
</filter>
<linearGradient id="paint0_linear" x1="92.3243" y1="71.3252" x2="95.0244" y2="200.229" gradientUnits="userSpaceOnUse">
<stop stop-color="#840007"/>
<stop offset="1" stop-color="#AB1D25" stop-opacity="0"/>
</linearGradient>
<linearGradient id="paint1_linear" x1="134.137" y1="76.7917" x2="136.705" y2="199.356" gradientUnits="userSpaceOnUse">
<stop stop-color="#840007"/>
<stop offset="1" stop-color="#AB1D25" stop-opacity="0"/>
</linearGradient>
<linearGradient id="paint2_linear" x1="198.946" y1="49.0079" x2="202.244" y2="206.439" gradientUnits="userSpaceOnUse">
<stop stop-color="#840007"/>
<stop offset="1" stop-color="#AB1D25" stop-opacity="0"/>
</linearGradient>
<linearGradient id="paint3_linear" x1="293.973" y1="31.1616" x2="297.869" y2="217.121" gradientUnits="userSpaceOnUse">
<stop stop-color="#840007"/>
<stop offset="1" stop-color="#AB1D25" stop-opacity="0"/>
</linearGradient>
<linearGradient id="paint4_linear" x1="349.169" y1="72.2874" x2="352.179" y2="215.983" gradientUnits="userSpaceOnUse">
<stop stop-color="#840007"/>
<stop offset="1" stop-color="#AB1D25" stop-opacity="0"/>
</linearGradient>
<linearGradient id="paint5_linear" x1="401.525" y1="53.2209" x2="404.645" y2="202.2" gradientUnits="userSpaceOnUse">
<stop stop-color="#840007"/>
<stop offset="1" stop-color="#AB1D25" stop-opacity="0"/>
</linearGradient>
<linearGradient id="paint6_linear" x1="405.447" y1="59.481" x2="408.324" y2="196.837" gradientUnits="userSpaceOnUse">
<stop stop-color="#840007"/>
<stop offset="1" stop-color="#AB1D25" stop-opacity="0"/>
</linearGradient>
<linearGradient id="paint7_linear" x1="42.7724" y1="73.4203" x2="45.3397" y2="195.984" gradientUnits="userSpaceOnUse">
<stop stop-color="#840007"/>
<stop offset="1" stop-color="#AB1D25" stop-opacity="0"/>
</linearGradient>
</defs>
</svg>
